<svg width="34" height="33" viewBox="0 0 34 33" fill="none" xmlns="http://www.w3.org/2000/svg">
<g clip-path="url(#clip0_46_54)" filter="url(#filter0_d_46_54)">
<g filter="url(#filter1_d_46_54)">
<path d="M4.81873 5.07423C4.6622 5.07536 4.50616 5.13753 4.39216 5.26173C2.03716 7.82493 0.599976 11.2446 0.599976 15C0.599976 18.7554 2.03716 22.1751 4.39216 24.7383C4.62016 24.9867 5.01412 24.9859 5.25232 24.7477L6.52966 23.4703C6.75946 23.2405 6.75801 22.8748 6.54021 22.6336C4.71321 20.6116 3.59998 17.9334 3.59998 15C3.59998 12.0666 4.71321 9.38842 6.54021 7.36642C6.75801 7.12522 6.75946 6.7601 6.52966 6.5297L5.25232 5.25236C5.13322 5.13326 4.97525 5.07311 4.81873 5.07423ZM25.1812 5.07423C25.0245 5.07326 24.8667 5.13326 24.7476 5.25236L23.4691 6.53087C23.2393 6.76067 23.2408 7.12522 23.4586 7.36642C25.2862 9.38782 26.4 12.0666 26.4 15C26.4 17.9334 25.2867 20.6116 23.4597 22.6336C23.2419 22.8748 23.2405 23.2399 23.4703 23.4703L24.7476 24.7477C24.9858 24.9859 25.3798 24.9861 25.6078 24.7383C27.9628 22.1751 29.4 18.7554 29.4 15C29.4 11.2446 27.9628 7.82493 25.6078 5.26173C25.4938 5.13753 25.3379 5.07521 25.1812 5.07423ZM21.375 8.90275C21.213 8.89473 21.0477 8.95226 20.9226 9.07736L19.6441 10.3559C19.4287 10.5713 19.4052 10.9182 19.6008 11.1516C20.4744 12.1944 21 13.5366 21 15C21 16.4634 20.4744 17.8051 19.6008 18.8473C19.4052 19.0807 19.4287 19.4276 19.6441 19.643L20.9226 20.9227C21.1728 21.1729 21.5805 21.1504 21.8121 20.8828C23.1753 19.3054 24 17.2488 24 15C24 12.7512 23.1753 10.6946 21.8121 9.1172C21.6963 8.9834 21.5369 8.91077 21.375 8.90275ZM8.62498 8.90392C8.46305 8.91195 8.30367 8.98458 8.18787 9.11837C6.82467 10.6952 5.99998 12.7512 5.99998 15C5.99998 17.2488 6.82467 19.3054 8.18787 20.8828C8.41947 21.1504 8.82712 21.1729 9.07732 20.9227L10.3558 19.6442C10.5712 19.4288 10.5948 19.0819 10.3992 18.8485C9.52559 17.8057 8.99998 16.4634 8.99998 15C8.99998 13.5366 9.52559 12.195 10.3992 11.1528C10.5948 10.9194 10.5712 10.5724 10.3558 10.357L9.07732 9.07736C8.95222 8.95226 8.7869 8.8959 8.62498 8.90392ZM15 11.4C13.0116 11.4 11.4 13.0116 11.4 15C11.4 16.9884 13.0116 18.6 15 18.6C16.9884 18.6 18.6 16.9884 18.6 15C18.6 13.0116 16.9884 11.4 15 11.4Z" fill="black"/>
</g>
</g>
<defs>
<filter id="filter0_d_46_54" x="-4" y="0" width="38" height="38" filterUnits="userSpaceOnUse" color-interpolation-filters="sRGB">
<feFlood flood-opacity="0" result="BackgroundImageFix"/>
<feColorMatrix in="SourceAlpha" type="matrix" values="0 0 0 0 0 0 0 0 0 0 0 0 0 0 0 0 0 0 127 0" result="hardAlpha"/>
<feOffset dy="4"/>
<feGaussianBlur stdDeviation="2"/>
<feComposite in2="hardAlpha" operator="out"/>
<feColorMatrix type="matrix" values="0 0 0 0 0 0 0 0 0 0 0 0 0 0 0 0 0 0 0.25 0"/>
<feBlend mode="normal" in2="BackgroundImageFix" result="effect1_dropShadow_46_54"/>
<feBlend mode="normal" in="SourceGraphic" in2="effect1_dropShadow_46_54" result="shape"/>
</filter>
<filter id="filter1_d_46_54" x="-3.40002" y="5.07422" width="36.8" height="27.8513" filterUnits="userSpaceOnUse" color-interpolation-filters="sRGB">
<feFlood flood-opacity="0" result="BackgroundImageFix"/>
<feColorMatrix in="SourceAlpha" type="matrix" values="0 0 0 0 0 0 0 0 0 0 0 0 0 0 0 0 0 0 127 0" result="hardAlpha"/>
<feOffset dy="4"/>
<feGaussianBlur stdDeviation="2"/>
<feComposite in2="hardAlpha" operator="out"/>
<feColorMatrix type="matrix" values="0 0 0 0 0 0 0 0 0 0 0 0 0 0 0 0 0 0 0.25 0"/>
<feBlend mode="normal" in2="BackgroundImageFix" result="effect1_dropShadow_46_54"/>
<feBlend mode="normal" in="SourceGraphic" in2="effect1_dropShadow_46_54" result="shape"/>
</filter>
<clipPath id="clip0_46_54">
<rect width="30" height="30" fill="white"/>
</clipPath>
</defs>
</svg>
