<svg width="30" height="30" viewBox="0 0 30 30" fill="none" xmlns="http://www.w3.org/2000/svg">
<g clip-path="url(#clip0_46_10)">
<path d="M4.8082 4.21758C4.65234 4.22007 4.50356 4.28311 4.39336 4.39337C1.6797 7.10765 0 10.8617 0 15C0 19.1383 1.6797 22.8924 4.39336 25.6066C4.50589 25.7191 4.65848 25.7823 4.81758 25.7823C4.97668 25.7823 5.12927 25.7191 5.2418 25.6066L6.94219 23.9063C7.05467 23.7937 7.11785 23.6411 7.11785 23.482C7.11785 23.3229 7.05467 23.1703 6.94219 23.0578C4.8772 20.9923 3.6 18.1457 3.6 15C3.6 11.8543 4.87788 9.00828 6.94336 6.94337C7.05584 6.83084 7.11903 6.67825 7.11903 6.51915C7.11903 6.36004 7.05584 6.20745 6.94336 6.09493L5.2418 4.39337C5.18498 4.33652 5.11732 4.29167 5.04284 4.26147C4.96836 4.23128 4.88857 4.21635 4.8082 4.21758ZM25.1742 4.21758C25.0179 4.21977 24.8687 4.28283 24.7582 4.39337L23.0566 6.09493C22.9442 6.20745 22.881 6.36004 22.881 6.51915C22.881 6.67825 22.9442 6.83084 23.0566 6.94337C25.1221 9.00828 26.4 11.8543 26.4 15C26.4 18.1457 25.1221 20.9917 23.0566 23.0566C22.9442 23.1692 22.881 23.3218 22.881 23.4809C22.881 23.64 22.9442 23.7926 23.0566 23.9051L24.7582 25.6066C24.8707 25.7191 25.0233 25.7823 25.1824 25.7823C25.3415 25.7823 25.4941 25.7191 25.6066 25.6066C28.321 22.8929 30 19.1383 30 15C30 10.8617 28.3203 7.10765 25.6066 4.39337C25.55 4.33666 25.4825 4.2919 25.4082 4.2617C25.334 4.23151 25.2544 4.21651 25.1742 4.21758ZM4.85859 5.70704L5.71172 6.56016C3.67616 8.79844 2.4 11.7451 2.4 15C2.4 18.2548 3.67565 21.2023 5.71055 23.441L4.85859 24.293C2.60701 21.8367 1.2 18.597 1.2 15C1.2 11.403 2.60701 8.16328 4.85859 5.70704ZM25.1414 5.70704C27.393 8.16328 28.8 11.403 28.8 15C28.8 18.597 27.3934 21.8373 25.1414 24.293L24.2883 23.4399C26.3238 21.2016 27.6 18.2549 27.6 15C27.6 11.7451 26.3238 8.79844 24.2883 6.56016L25.1414 5.70704ZM8.62969 8.03907C8.47382 8.04155 8.32504 8.1046 8.21484 8.21485C6.47766 9.95268 5.4 12.3563 5.4 15C5.4 17.6437 6.47766 20.0473 8.21484 21.7852C8.32737 21.8976 8.47996 21.9608 8.63906 21.9608C8.79817 21.9608 8.95076 21.8976 9.06328 21.7852L10.759 20.0895C10.8715 19.9769 10.9347 19.8243 10.9347 19.6652C10.9347 19.5061 10.8715 19.3535 10.759 19.241C9.67194 18.1534 9 16.6571 9 15C9 13.3429 9.67194 11.8466 10.759 10.759C10.8715 10.6465 10.9347 10.4939 10.9347 10.3348C10.9347 10.1757 10.8715 10.0231 10.759 9.91055L9.06328 8.21485C9.00646 8.15801 8.93881 8.11316 8.86432 8.08296C8.78984 8.05276 8.71005 8.03784 8.62969 8.03907ZM21.3527 8.03907C21.1965 8.04125 21.0472 8.10432 20.9367 8.21485L19.241 9.91055C19.1285 10.0231 19.0654 10.1757 19.0654 10.3348C19.0654 10.4939 19.1285 10.6465 19.241 10.759C20.3281 11.8466 21 13.3429 21 15C21 16.6571 20.3281 18.1534 19.241 19.241C19.1285 19.3535 19.0654 19.5061 19.0654 19.6652C19.0654 19.8243 19.1285 19.9769 19.241 20.0895L20.9367 21.7852C21.0492 21.8976 21.2018 21.9608 21.3609 21.9608C21.52 21.9608 21.6726 21.8976 21.7852 21.7852C23.5223 20.0473 24.6 17.6437 24.6 15C24.6 12.3563 23.5223 9.95268 21.7852 8.21485C21.7285 8.15815 21.661 8.11338 21.5867 8.08319C21.5125 8.053 21.4329 8.038 21.3527 8.03907ZM8.68008 9.52852L9.56836 10.4168C8.51086 11.6706 7.8 13.2368 7.8 15C7.8 16.7632 8.51086 18.3295 9.56836 19.5832L8.68008 20.4715C7.40158 18.9968 6.6 17.1016 6.6 15C6.6 12.8984 7.40158 11.0032 8.68008 9.52852ZM21.3199 9.52852C22.5984 11.0032 23.4 12.8984 23.4 15C23.4 17.1016 22.5984 18.9968 21.3199 20.4715L20.4316 19.5832C21.4891 18.3295 22.2 16.7632 22.2 15C22.2 13.2368 21.4891 11.6706 20.4316 10.4168L21.3199 9.52852ZM15 10.8C12.6804 10.8 10.8 12.6804 10.8 15C10.8 17.3196 12.6804 19.2 15 19.2C17.3196 19.2 19.2 17.3196 19.2 15C19.2 12.6804 17.3196 10.8 15 10.8ZM15 12C16.6542 12 18 13.3458 18 15C18 16.6542 16.6542 18 15 18C13.3458 18 12 16.6542 12 15C12 13.3458 13.3458 12 15 12Z" fill="black"/>
</g>
<defs>
<clipPath id="clip0_46_10">
<rect width="30" height="30" fill="white"/>
</clipPath>
</defs>
</svg>
